<svg width="0" height="0" class="hidden">
  <symbol version="1.0" xmlns="http://www.w3.org/2000/svg" preserveAspectRatio="xMidYMid meet" viewBox="0 0 128.000000 128.000000" id="facebook">
    <g transform="translate(0.000000,128.000000) scale(0.100000,-0.100000)" fill="#none" stroke="none">
      <path d="M676 1138 c-52 -14 -128 -89 -144 -144 -6 -23 -12 -80 -12 -127 l0
-86 -77 -3 -78 -3 -3 -88 c-2 -57 1 -94 9 -103 8 -10 33 -14 80 -14 l69 0 0
-220 0 -220 105 0 105 0 0 220 0 220 68 0 c116 0 112 -3 112 111 l0 98 -87 3
-88 3 -3 62 c-4 94 4 103 93 103 89 0 95 7 95 104 0 99 3 96 -109 95 -53 -1
-114 -6 -135 -11z"></path>
    </g>
  </symbol>
  <symbol version="1.0" xmlns="http://www.w3.org/2000/svg" preserveAspectRatio="xMidYMid meet" viewBox="0 0 128.000000 128.000000" id="linkedin">
    <g transform="translate(0.000000,128.000000) scale(0.100000,-0.100000)" fill="#none" stroke="none">
      <path d="M95 1266 c-103 -45 -124 -181 -40 -255 81 -70 193 -44 237 57 55 124
-73 252 -197 198z"></path>
      <path d="M903 870 c-71 -15 -142 -58 -175 -108 l-18 -27 0 58 0 57 -130 0
-130 0 0 -425 0 -425 134 0 135 0 3 268 c3 296 7 313 71 352 45 28 125 27 162
-2 51 -40 55 -64 55 -353 l0 -265 135 0 135 0 0 283 c0 204 -4 300 -14 349
-32 149 -98 215 -237 238 -71 11 -68 11 -126 0z"></path>
      <path d="M20 425 l0 -425 135 0 135 0 0 425 0 425 -135 0 -135 0 0 -425z"></path>
    </g>
  </symbol>
  <symbol version="1.0" xmlns="http://www.w3.org/2000/svg" preserveAspectRatio="xMidYMid meet" viewBox="0 0 128.000000 128.000000" id="twitter">
    <g transform="translate(0.000000,128.000000) scale(0.100000,-0.100000)" fill="#none" stroke="none">
      <path d="M820 1151 c-117 -36 -192 -134 -192 -252 0 -69 1 -69 -120 -44 -130
27 -297 121 -381 214 l-38 42 -15 -38 c-36 -85 -14 -197 55 -275 l31 -36 -32
7 c-18 5 -43 11 -55 15 -28 9 -29 -1 -8 -70 19 -65 72 -126 137 -158 48 -24
50 -26 22 -27 -16 -1 -39 0 -51 1 -71 5 48 -142 135 -168 22 -7 47 -12 57 -12
54 0 -87 -78 -181 -99 -27 -7 -78 -12 -112 -13 -34 0 -62 -3 -62 -5 0 -2 33
-19 73 -38 451 -213 958 48 1053 543 8 41 14 93 14 116 0 38 6 48 61 105 34
34 59 64 57 66 -2 2 -26 -2 -53 -10 -65 -20 -86 -20 -56 1 22 16 81 100 81
116 0 5 -17 0 -37 -11 -21 -10 -56 -24 -79 -31 -38 -11 -43 -10 -85 18 -69 47
-152 63 -219 43z"></path>
    </g>
  </symbol>
  <symbol version="1.0" xmlns="http://www.w3.org/2000/svg" preserveAspectRatio="xMidYMid meet" viewBox="0 0 128.000000 128.000000" id="instagram">
    <g transform="translate(0.000000,128.000000) scale(0.100000,-0.100000)" fill="#none" stroke="none">
      <path d="M310 1269 c-80 -13 -173 -62 -215 -113 -54 -66 -74 -122 -86 -243
-16 -155 -6 -591 15 -660 35 -113 118 -195 235 -231 48 -15 101 -17 386 -17
300 0 335 2 389 19 107 35 191 120 223 224 16 50 18 101 18 402 0 337 -1 346
-23 402 -48 120 -152 198 -289 218 -83 12 -577 11 -653 -1z m669 -120 c64 -13
125 -58 152 -110 27 -54 38 -172 38 -399 0 -325 -18 -410 -100 -470 -66 -47
-112 -52 -459 -48 -302 3 -317 4 -356 25 -22 12 -55 37 -71 57 -56 62 -58 81
-58 436 0 364 3 385 69 449 66 64 105 70 438 71 175 0 318 -4 347 -11z"></path>
      <path d="M935 1035 c-50 -49 -20 -125 50 -125 69 0 100 76 50 125 -13 14 -36
25 -50 25 -14 0 -37 -11 -50 -25z"></path>
      <path d="M567 960 c-298 -75 -344 -477 -69 -612 59 -29 76 -33 147 -32 99 0
172 31 235 100 65 70 85 123 85 224 0 101 -20 154 -85 224 -75 81 -208 122
-313 96z m191 -143 c126 -83 126 -271 0 -354 -55 -37 -148 -44 -204 -15 -165
85 -164 296 1 386 48 26 152 18 203 -17z"></path>
    </g>
  </symbol>
</svg>